<svg width="104" height="106" viewBox="0 0 104 106" fill="none" xmlns="http://www.w3.org/2000/svg">
<path d="M1.49301 24.3831C-1.58049 29.5308 0.243467 36.1131 5.56691 39.0851C10.8904 42.0571 17.6975 40.2934 20.7709 35.1457C23.8444 29.9981 22.0205 23.4157 16.697 20.4437C11.3736 17.4717 4.56651 19.2354 1.49301 24.3831Z" fill="#EEE9FF"/>
<path fill-rule="evenodd" clip-rule="evenodd" d="M100.097 4.27209C98.2565 -2.78503 87.2949 0.0551348 89.3459 7.05765L92.2266 17.4535C94.0669 24.5106 105.03 21.6702 102.978 14.6679L100.097 4.27209ZM80.098 98.434C78.2578 91.3768 67.2962 94.217 69.3472 101.22L69.3469 101.218C71.1871 108.275 82.1498 105.435 80.0977 98.4327L80.098 98.434Z" fill="#2EB1B9"/>
</svg>
