<svg width="113" height="125" viewBox="0 0 113 125" fill="none" xmlns="http://www.w3.org/2000/svg">
<path d="M7.87006 116.848C12.2166 121.195 19.2638 121.195 23.6104 116.848C27.957 112.502 27.957 105.455 23.6104 101.108C19.2638 96.7614 12.2166 96.7614 7.87006 101.108C3.52348 105.455 3.52348 112.502 7.87006 116.848Z" fill="#EEE9FF"/>
<path fill-rule="evenodd" clip-rule="evenodd" d="M18.1716 0.000813404C10.6459 -0.110488 10.6459 11.2378 18.1716 11.1309H29.3018C36.8275 11.2422 36.8275 -0.107149 29.3018 0.000813404H18.1716ZM107.055 44.5213C99.5292 44.41 99.5292 55.7582 107.055 55.6514H107.054C114.579 55.7627 114.579 44.4133 107.054 44.5213H107.055Z" fill="#2EB1B9"/>
</svg>
