<svg width="83" height="157" viewBox="0 0 83 157" fill="none" xmlns="http://www.w3.org/2000/svg">
<path fill-rule="evenodd" clip-rule="evenodd" d="M55.6515 61.9896C55.7628 54.4638 44.4146 54.4638 44.5214 61.9896L44.5214 73.1197C44.4101 80.6454 55.7595 80.6454 55.6515 73.1197L55.6515 61.9896ZM11.1311 150.873C11.2424 143.348 -0.105884 143.348 0.000964369 150.873L0.000964369 150.872C-0.110337 158.398 11.239 158.398 11.1311 150.872L11.1311 150.873Z" fill="#DB5AF0"/>
<path d="M71.6326 2.88071C65.695 1.28975 59.592 4.81335 58.001 10.7509C56.4101 16.6884 59.9337 22.7915 65.8712 24.3824C71.8087 25.9734 77.9118 22.4498 79.5028 16.5123C81.0937 10.5747 77.5701 4.47167 71.6326 2.88071Z" fill="#2EB1B9"/>
</svg>
