<svg class="svg" width="87" height="33" viewBox="0 0 87 33" fill="none" xmlns="http://www.w3.org/2000/svg">
<path d="M27.793 21.195L27.208 20.272C27.572 20.0813 27.897 19.8517 28.183 19.583C28.469 19.3143 28.7073 18.972 28.898 18.556C29.0887 18.14 29.2317 17.6113 29.327 16.97C29.431 16.3287 29.483 15.54 29.483 14.604L29.483 11.835L35.827 11.835L35.827 21L34.618 21L34.618 12.849L30.601 12.849L30.601 14.903C30.601 15.8303 30.5403 16.6407 30.419 17.334C30.2977 18.0273 30.1157 18.6253 29.873 19.128C29.639 19.622 29.3443 20.038 28.989 20.376C28.6423 20.7053 28.2437 20.9783 27.793 21.195ZM41.1267 21.117C40.4854 21.117 39.9307 20.9827 39.4627 20.714C38.9947 20.4367 38.6307 20.0467 38.3707 19.544C38.1107 19.0327 37.9807 18.426 37.9807 17.724C37.9807 17.0307 38.1107 16.4327 38.3707 15.93C38.6307 15.4187 38.9947 15.0287 39.4627 14.76C39.9307 14.4827 40.4854 14.344 41.1267 14.344C41.7681 14.344 42.3227 14.4827 42.7907 14.76C43.2674 15.0287 43.6314 15.4187 43.8827 15.93C44.1427 16.4327 44.2727 17.0307 44.2727 17.724C44.2727 18.426 44.1427 19.0327 43.8827 19.544C43.6314 20.0467 43.2674 20.4367 42.7907 20.714C42.3227 20.9827 41.7681 21.117 41.1267 21.117ZM41.1267 20.181C41.7161 20.181 42.1884 19.973 42.5437 19.557C42.8991 19.141 43.0767 18.53 43.0767 17.724C43.0767 16.918 42.8991 16.3113 42.5437 15.904C42.1884 15.4967 41.7161 15.293 41.1267 15.293C40.5287 15.293 40.0521 15.4967 39.6967 15.904C39.3501 16.3113 39.1767 16.918 39.1767 17.724C39.1767 18.53 39.3501 19.141 39.6967 19.557C40.0521 19.973 40.5287 20.181 41.1267 20.181ZM46.3516 21L46.3516 14.461L50.9926 14.461L50.9926 15.41L47.5346 15.41L47.5346 21L46.3516 21ZM55.3892 21.117C54.7478 21.117 54.1932 20.9827 53.7252 20.714C53.2572 20.4367 52.8932 20.0467 52.6332 19.544C52.3732 19.0327 52.2432 18.426 52.2432 17.724C52.2432 17.0307 52.3732 16.4327 52.6332 15.93C52.8932 15.4187 53.2572 15.0287 53.7252 14.76C54.1932 14.4827 54.7478 14.344 55.3892 14.344C56.0305 14.344 56.5852 14.4827 57.0532 14.76C57.5298 15.0287 57.8938 15.4187 58.1452 15.93C58.4052 16.4327 58.5352 17.0307 58.5352 17.724C58.5352 18.426 58.4052 19.0327 58.1452 19.544C57.8938 20.0467 57.5298 20.4367 57.0532 20.714C56.5852 20.9827 56.0305 21.117 55.3892 21.117ZM55.3892 20.181C55.9785 20.181 56.4508 19.973 56.8062 19.557C57.1615 19.141 57.3392 18.53 57.3392 17.724C57.3392 16.918 57.1615 16.3113 56.8062 15.904C56.4508 15.4967 55.9785 15.293 55.3892 15.293C54.7912 15.293 54.3145 15.4967 53.9592 15.904C53.6125 16.3113 53.4392 16.918 53.4392 17.724C53.4392 18.53 53.6125 19.141 53.9592 19.557C54.3145 19.973 54.7912 20.181 55.3892 20.181Z" fill="#555"/>
<rect x="0.5" y="0.5" width="86" height="32" rx="16" stroke="#555"/>
</svg>