<svg width="170" height="52" viewBox="0 0 170 52" fill="none" xmlns="http://www.w3.org/2000/svg">
<path d="M65.424 32.288L64.192 30.496C64.64 30.24 65.0293 29.9467 65.36 29.616C65.7013 29.2747 65.9787 28.864 66.192 28.384C66.4053 27.904 66.5653 27.3227 66.672 26.64C66.7787 25.9573 66.832 25.1413 66.832 24.192L66.832 20.72L75.312 20.72L75.312 32L72.832 32L72.832 22.736L69.12 22.736L69.12 24.8C69.12 25.824 69.0347 26.7413 68.864 27.552C68.704 28.352 68.464 29.056 68.144 29.664C67.8347 30.272 67.4507 30.7947 66.992 31.232C66.5333 31.6587 66.0107 32.0107 65.424 32.288ZM81.8931 32.176C81.0291 32.176 80.2771 32.0053 79.6371 31.664C79.0078 31.312 78.5171 30.8213 78.1651 30.192C77.8238 29.5627 77.6531 28.8107 77.6531 27.936C77.6531 27.072 77.8238 26.3253 78.1651 25.696C78.5171 25.0667 79.0078 24.5813 79.6371 24.24C80.2771 23.8987 81.0291 23.728 81.8931 23.728C82.7571 23.728 83.5091 23.8987 84.1491 24.24C84.7891 24.5813 85.2798 25.0667 85.6211 25.696C85.9731 26.3253 86.1491 27.072 86.1491 27.936C86.1491 28.8107 85.9731 29.5627 85.6211 30.192C85.2798 30.8213 84.7891 31.312 84.1491 31.664C83.5091 32.0053 82.7571 32.176 81.8931 32.176ZM81.8931 30.352C82.4478 30.352 82.8851 30.1547 83.2051 29.76C83.5358 29.3653 83.7011 28.7573 83.7011 27.936C83.7011 27.1147 83.5358 26.512 83.2051 26.128C82.8851 25.744 82.4478 25.552 81.8931 25.552C81.3385 25.552 80.8958 25.744 80.5651 26.128C80.2451 26.512 80.0851 27.1147 80.0851 27.936C80.0851 28.7573 80.2451 29.3653 80.5651 29.76C80.8958 30.1547 81.3385 30.352 81.8931 30.352ZM88.391 32L88.391 23.888L94.727 23.888L94.727 25.776L90.807 25.776L90.807 32L88.391 32ZM100.463 32.176C99.5985 32.176 98.8465 32.0053 98.2065 31.664C97.5772 31.312 97.0865 30.8213 96.7345 30.192C96.3932 29.5627 96.2225 28.8107 96.2225 27.936C96.2225 27.072 96.3932 26.3253 96.7345 25.696C97.0865 25.0667 97.5772 24.5813 98.2065 24.24C98.8465 23.8987 99.5985 23.728 100.463 23.728C101.327 23.728 102.079 23.8987 102.719 24.24C103.359 24.5813 103.849 25.0667 104.191 25.696C104.543 26.3253 104.719 27.072 104.719 27.936C104.719 28.8107 104.543 29.5627 104.191 30.192C103.849 30.8213 103.359 31.312 102.719 31.664C102.079 32.0053 101.327 32.176 100.463 32.176ZM100.463 30.352C101.017 30.352 101.455 30.1547 101.775 29.76C102.105 29.3653 102.271 28.7573 102.271 27.936C102.271 27.1147 102.105 26.512 101.775 26.128C101.455 25.744 101.017 25.552 100.463 25.552C99.9078 25.552 99.4652 25.744 99.1345 26.128C98.8145 26.512 98.6545 27.1147 98.6545 27.936C98.6545 28.7573 98.8145 29.3653 99.1345 29.76C99.4652 30.1547 99.9078 30.352 100.463 30.352Z" fill="#999"/>
<rect x="1" y="1" width="168" height="50" rx="25" stroke="#999" stroke-width="2"/>
</svg>
