<svg width="76" height="76" viewBox="0 0 76 76" fill="none" xmlns="http://www.w3.org/2000/svg">
<path d="M31.4082 0.498291C31.0767 0.498324 30.7588 0.629936 30.5244 0.864349C30.2899 1.09876 30.1582 1.41678 30.1582 1.74829V8.30591C27.4828 9.00466 24.9212 10.0535 22.5264 11.4358L17.9121 6.82642C17.6777 6.59208 17.3598 6.46051 17.0283 6.46051C16.6969 6.46051 16.379 6.59208 16.1445 6.82642L6.82812 16.1477C6.59382 16.3821 6.46219 16.7 6.46219 17.0315C6.46219 17.3629 6.59382 17.6809 6.82812 17.9153L11.4521 22.5393C10.0626 24.9311 8.99939 27.4871 8.29297 30.1614H1.75C1.41849 30.1614 1.10057 30.2932 0.866153 30.5276C0.63174 30.762 0.500033 31.0799 0.5 31.4114V44.5901C0.500033 44.9216 0.63174 45.2395 0.866153 45.4739C1.10057 45.7083 1.41849 45.8401 1.75 45.8401H8.30762C9.00659 48.5161 10.0596 51.0764 11.4424 53.4719L6.82812 58.0862C6.59382 58.3206 6.46219 58.6385 6.46219 58.97C6.46219 59.3014 6.59382 59.6193 6.82812 59.8538L16.1445 69.175C16.379 69.4094 16.6969 69.541 17.0283 69.541C17.3598 69.541 17.6777 69.4094 17.9121 69.175L22.5361 64.551C24.9272 65.9403 27.4846 66.9991 30.1582 67.7053V74.2483C30.1582 74.5798 30.2899 74.8977 30.5244 75.1321C30.7588 75.3665 31.0767 75.4983 31.4082 75.4983H44.5918C44.9233 75.4983 45.2412 75.3665 45.4756 75.1321C45.7101 74.8977 45.8418 74.5798 45.8418 74.2483V67.6956C48.5178 66.9966 51.0783 65.9438 53.4736 64.5608L58.0879 69.175C58.3223 69.4094 58.6402 69.541 58.9717 69.541C59.3031 69.541 59.621 69.4094 59.8555 69.175L69.1719 59.8538C69.4062 59.6193 69.5378 59.3014 69.5378 58.97C69.5378 58.6385 69.4062 58.3206 69.1719 58.0862L64.5479 53.4622C65.9374 51.0704 67.0006 48.5143 67.707 45.8401H74.25C74.5815 45.8401 74.8994 45.7083 75.1339 45.4739C75.3683 45.2395 75.5 44.9216 75.5 44.5901V31.4114C75.5 31.0799 75.3683 30.762 75.1339 30.5276C74.8994 30.2932 74.5815 30.1614 74.25 30.1614H67.6924C66.9935 27.4841 65.9409 24.926 64.5576 22.5295L69.1719 17.9153C69.4062 17.6809 69.5378 17.3629 69.5378 17.0315C69.5378 16.7 69.4062 16.3821 69.1719 16.1477L59.8555 6.82642C59.621 6.59208 59.3031 6.46051 58.9717 6.46051C58.6402 6.46051 58.3223 6.59208 58.0879 6.82642L53.4639 11.4504C51.0724 10.0609 48.5159 9.00264 45.8418 8.29614V1.74829C45.8418 1.41678 45.7101 1.09876 45.4756 0.864349C45.2412 0.629936 44.9233 0.498324 44.5918 0.498291H31.4082ZM32.6582 2.99829H43.3418V9.11157C43.3413 9.39508 43.4373 9.67009 43.6138 9.89191C43.7904 10.1137 44.0371 10.2691 44.3135 10.3323C47.4277 11.042 50.3973 12.2717 53.1025 13.97C53.3427 14.1215 53.6274 14.1867 53.9096 14.1549C54.1918 14.1231 54.4548 13.9963 54.6553 13.7951L58.9717 9.47839L66.5205 17.0321L62.2188 21.3339C62.0186 21.5339 61.8922 21.7961 61.8602 22.0773C61.8283 22.3585 61.8927 22.6422 62.043 22.882C63.7337 25.5925 64.9556 28.5687 65.6563 31.6854C65.7182 31.9619 65.8723 32.2093 66.0932 32.3867C66.3141 32.5642 66.5887 32.6614 66.8721 32.6623H73V43.3407H66.8867C66.6032 43.3403 66.328 43.4363 66.1062 43.6129C65.8844 43.7895 65.7291 44.036 65.666 44.3124C64.9564 47.4266 63.7264 50.4011 62.0283 53.1063C61.8781 53.3461 61.8138 53.6299 61.8457 53.9111C61.8776 54.1922 62.004 54.4542 62.2041 54.6542L66.5205 58.9706L58.9717 66.5246L54.665 62.2177C54.4652 62.0188 54.2041 61.8933 53.924 61.8615C53.6439 61.8297 53.3613 61.8937 53.1221 62.0428C50.4115 63.7335 47.4353 64.9553 44.3184 65.6561C44.0411 65.7183 43.7932 65.873 43.6157 66.0949C43.4382 66.3168 43.3416 66.5926 43.3418 66.8768V72.9998H32.6582V66.8865C32.6575 66.6039 32.5611 66.3297 32.3846 66.1089C32.2082 65.8882 31.9621 65.7337 31.6865 65.6707C28.5724 64.961 25.6026 63.7313 22.8975 62.033C22.6573 61.8815 22.3726 61.8163 22.0904 61.8481C21.8082 61.8799 21.5452 62.0067 21.3447 62.2079L17.0283 66.5246L9.47949 58.9706L13.7812 54.6688C13.9814 54.4688 14.1077 54.2069 14.1397 53.9257C14.1716 53.6446 14.1072 53.3611 13.957 53.1213C12.2663 50.4105 11.0444 47.4343 10.3437 44.3176C10.2818 44.0411 10.1277 43.7937 9.90682 43.6163C9.68592 43.4388 9.41128 43.3416 9.12793 43.3407H3V32.6623H9.11328C9.39747 32.6625 9.67325 32.5658 9.89515 32.3882C10.1171 32.2107 10.2718 31.9627 10.334 31.6854C11.0436 28.5714 12.2736 25.6016 13.9717 22.8964C14.1219 22.6566 14.1862 22.3731 14.1543 22.0919C14.1224 21.8108 13.996 21.5488 13.7959 21.3488L9.47949 17.0321L17.0283 9.47839L21.335 13.7853C21.5347 13.9842 21.7959 14.1097 22.076 14.1415C22.3561 14.1732 22.6387 14.1093 22.8779 13.9602C25.5885 12.2695 28.5647 11.0477 31.6816 10.3469C31.9589 10.2847 32.2068 10.13 32.3843 9.90808C32.5618 9.68617 32.6584 9.4104 32.6582 9.12622V2.99829H32.6582Z" fill="white"/>
<path d="M38 15.4983C25.5881 15.4983 15.5 25.5858 15.5 37.9983C15.5 50.411 25.5881 60.5032 38 60.5032C50.4116 60.5032 60.5 50.411 60.5 37.9983C60.5 25.5858 50.4116 15.4983 38 15.4983ZM36.75 18.2522V26.1233H22.3213C25.7223 21.6368 30.7748 18.6399 36.75 18.2522ZM39.25 18.2522C45.225 18.6399 50.2777 21.6368 53.6787 26.1233H39.25V18.2522ZM20.6367 28.6233H36.75V36.7483H18.2539C18.4463 33.7863 19.2973 31.0928 20.6367 28.6233ZM39.25 28.6233H55.3633C56.7027 31.0928 57.5537 33.7863 57.7461 36.7483H39.25V28.6233ZM18.249 39.2483H36.75V47.3782H20.6367C19.297 44.9082 18.4412 42.2113 18.249 39.2483ZM39.25 39.2483H57.751C57.5588 42.2113 56.703 44.9082 55.3633 47.3782H39.25V39.2483ZM22.3213 49.8782H36.75V57.7493C30.7748 57.3615 25.7223 54.3647 22.3213 49.8782ZM39.25 49.8782H53.6787C50.2777 54.3647 45.225 57.3615 39.25 57.7493V49.8782Z" fill="#7F5AF0"/>
<path fill-rule="evenodd" clip-rule="evenodd" d="M29.5337 17.7493C24.0528 31.2463 23.1479 44.0967 29.1186 58.0959L31.4135 57.1145C25.6914 43.6983 26.5356 31.769 31.8481 18.6868L29.5337 17.7493ZM46.3061 17.7493L43.9917 18.6868C49.3042 31.769 50.1484 43.6983 44.4262 57.1145L46.726 58.0959C52.6968 44.0967 51.787 31.2463 46.3061 17.7493Z" fill="#7F5AF0"/>
</svg>
