<svg width="80" height="39" viewBox="0 0 80 39" fill="none" xmlns="http://www.w3.org/2000/svg">
<path fill-rule="evenodd" clip-rule="evenodd" d="M1.25 0.998296C0.91849 0.998329 0.600566 1.13009 0.366153 1.36451C0.13174 1.59892 3.31461e-05 1.91679 0 2.2483L0 19.7483V37.2483C3.31461e-05 37.5798 0.13174 37.8977 0.366153 38.1321C0.600566 38.3665 0.91849 38.4983 1.25 38.4983H31.2402H51.2305C51.4514 38.4989 51.6686 38.4408 51.8599 38.3301C52.0511 38.2195 52.2097 38.0602 52.3193 37.8684L62.3193 20.3684C62.4272 20.1795 62.484 19.9658 62.484 19.7483C62.484 19.5308 62.4272 19.317 62.3193 19.1282L52.3193 1.62818C52.2097 1.4363 52.0512 1.27681 51.8599 1.16614C51.6686 1.05547 51.4515 0.997697 51.2305 0.998296H31.2402H1.25ZM2.5 3.4983H31.2402H50.5078L59.7949 19.7483L50.5078 35.9983H31.2402H2.5V19.7483V3.4983Z" fill="white"/>
<path fill-rule="evenodd" clip-rule="evenodd" d="M54.9805 18.4934C54.9804 15.0614 52.1722 12.2483 48.7402 12.2483C45.3082 12.2483 42.5001 15.0614 42.5 18.4934C42.4999 21.9254 45.3081 24.7336 48.7402 24.7336C52.1724 24.7336 54.9805 21.9254 54.9805 18.4934ZM52.4805 18.4934C52.4805 20.5744 50.8212 22.2336 48.7402 22.2336C46.6592 22.2336 45 20.5744 45 18.4934C45.0001 16.4124 46.6593 14.7483 48.7402 14.7483C50.8212 14.7483 52.4804 16.4124 52.4805 18.4934Z" fill="white"/>
<path fill-rule="evenodd" clip-rule="evenodd" d="M50.0687 20.9249C49.8078 18.9999 50.1866 16.9881 51.2455 15.2316C51.3255 15.0822 51.4351 14.9506 51.5676 14.8449C51.7001 14.7392 51.8526 14.6619 52.0161 14.617C52.1795 14.5721 52.3503 14.5608 52.5182 14.584C52.686 14.6072 52.8474 14.6641 52.9926 14.7515C53.1377 14.839 53.2636 14.9551 53.3625 15.0927C53.4613 15.2303 53.5312 15.3866 53.5678 15.552C53.6045 15.7175 53.6071 15.8888 53.5755 16.0553C53.5439 16.2217 53.4788 16.3801 53.3841 16.5206C51.8652 19.0404 52.3041 22.2601 54.4388 24.2843C56.5735 26.3086 59.8073 26.5757 62.2416 24.924C64.6759 23.2725 65.6274 20.1665 64.5365 17.4337C63.4456 14.7012 60.617 13.1061 57.7152 13.5861C57.5507 13.6188 57.3813 13.6183 57.2171 13.5842C57.0529 13.5502 56.8972 13.4832 56.7593 13.3877C56.6215 13.2922 56.5042 13.17 56.4146 13.0282C56.3249 12.8865 56.2647 12.7283 56.2375 12.5628C56.2103 12.3973 56.2167 12.2281 56.2562 12.0651C56.2958 11.9021 56.3678 11.7486 56.4678 11.614C56.5679 11.4794 56.694 11.3665 56.8387 11.2817C56.9834 11.1969 57.1436 11.1419 57.3099 11.1203C61.3564 10.451 65.3399 12.6962 66.8607 16.506C68.3816 20.3155 67.042 24.6866 63.6478 26.9894C60.2537 29.2924 55.6915 28.9232 52.7152 26.1007C51.227 24.6897 50.3296 22.8499 50.0687 20.9249Z" fill="white"/>
<path fill-rule="evenodd" clip-rule="evenodd" d="M64.9805 18.4983V20.9983H71.2305V18.4983H64.9805Z" fill="white"/>
<path fill-rule="evenodd" clip-rule="evenodd" d="M69.9806 19.7338C69.9825 19.5692 70.0168 19.4068 70.0817 19.2556C70.1466 19.1043 70.2408 18.9672 70.3587 18.8524C70.4767 18.7377 70.6161 18.6474 70.7691 18.5866C70.9221 18.5259 71.0855 18.4959 71.2501 18.4984C73.5703 18.4984 75.796 19.4214 77.4366 21.0619C79.0772 22.7027 80.0001 24.9284 80.0001 27.2484C80.0024 27.4141 79.9718 27.5784 79.9101 27.7321C79.8483 27.8859 79.7566 28.0259 79.6403 28.1438C79.524 28.2618 79.3854 28.3555 79.2326 28.4194C79.0797 28.4833 78.9157 28.5161 78.7501 28.5161C78.5844 28.5161 78.4204 28.4833 78.2676 28.4194C78.1148 28.3555 77.9762 28.2618 77.8599 28.1438C77.7436 28.0259 77.6519 27.8859 77.5901 27.7321C77.5283 27.5784 77.4977 27.4141 77.5001 27.2484C77.5001 25.5904 76.8415 24.0017 75.669 22.8295C74.4966 21.657 72.9082 20.9984 71.2501 20.9984C71.0831 21.001 70.9172 20.9701 70.7624 20.9075C70.6075 20.8449 70.4667 20.7519 70.3484 20.6341C70.23 20.5162 70.1365 20.3758 70.0733 20.2212C70.0102 20.0665 69.9786 19.9008 69.9806 19.7338Z" fill="white"/>
<path d="M7.59009 14.2847C7.59009 20.291 14.0466 21.1018 14.0466 25.4261C14.0466 26.9278 13.386 27.4683 12.3349 27.4683C11.2838 27.4683 10.6232 26.9278 10.6232 25.4261V23.9246H7.5V25.2158C7.5 28.5791 9.18171 30.5012 12.425 30.5012C15.6683 30.5012 17.35 28.5791 17.35 25.2158C17.35 19.2096 10.8934 18.399 10.8934 14.0745C10.8934 12.573 11.4941 12.0023 12.5451 12.0023C13.5962 12.0023 14.1968 12.573 14.1968 14.0745V14.9454H17.32V14.2847C17.32 10.9215 15.6683 8.99939 12.455 8.99939C9.24177 8.99939 7.59009 10.9215 7.59009 14.2847ZM22.5166 12.2428H28.2224V9.23987H19.2133V30.261H28.2224V27.2581H22.5166V21.1017H27.0512V18.0988H22.5166V12.2428ZM33.2732 14.0745C33.2732 12.573 33.9338 12.0023 34.9849 12.0023C36.036 12.0023 36.6966 12.573 36.6966 14.0745V25.4261C36.6966 26.9278 36.036 27.4982 34.9849 27.4982C33.9338 27.4982 33.2732 26.9278 33.2732 25.4261V14.0745ZM29.9698 25.2158C29.9698 28.5791 31.7416 30.5012 34.9849 30.5012C38.2282 30.5012 40 28.5791 40 25.2158V14.2847C40 10.9215 38.2282 8.99939 34.9849 8.99939C31.7416 8.99939 29.9698 10.9215 29.9698 14.2847V25.2158Z" fill="#7F5AF0"/>
</svg>
