<svg width="66" height="66" viewBox="0 0 66 66" fill="none" xmlns="http://www.w3.org/2000/svg">
<path d="M32.9806 0.483795C32.6499 0.488972 32.3348 0.624914 32.1042 0.861908C31.8736 1.0989 31.7462 1.41763 31.7501 1.74829V32.9983C31.7498 33.218 31.8075 33.4336 31.9172 33.6239C32.0269 33.8142 32.1849 33.9724 32.3751 34.0823L59.4405 49.7073C59.5828 49.7974 59.7418 49.8578 59.9081 49.8849C60.0743 49.912 60.2443 49.9053 60.4078 49.8651C60.5714 49.8248 60.7251 49.7519 60.8598 49.6508C60.9944 49.5497 61.1073 49.4222 61.1916 49.2764C61.2758 49.1306 61.3298 48.9693 61.3502 48.8021C61.3705 48.6349 61.3569 48.4653 61.3101 48.3035C61.2633 48.1417 61.1843 47.9911 61.0778 47.8607C60.9714 47.7302 60.8396 47.6225 60.6905 47.5442L34.2501 32.2805V1.74829C34.252 1.58127 34.2205 1.41555 34.1573 1.26092C34.0941 1.1063 34.0006 0.965897 33.8823 0.848022C33.7639 0.730148 33.6231 0.637146 33.4683 0.574585C33.3134 0.512023 33.1476 0.481191 32.9806 0.483795Z" fill="#7F5AF0"/>
<path d="M33 0.498291C30.7577 0.498291 28.5674 0.730756 26.4521 1.16251C24.3359 1.59551 22.293 2.23488 20.3486 3.05688C20.1888 3.11444 20.0424 3.20393 19.9184 3.31995C19.7943 3.43597 19.6952 3.57603 19.6271 3.73163C19.559 3.88723 19.5233 4.05525 19.5222 4.2251C19.5211 4.39495 19.5546 4.56332 19.6207 4.71979C19.6868 4.87625 19.7841 5.01752 19.9067 5.13513C20.0292 5.25274 20.1745 5.34407 20.3335 5.40369C20.4926 5.4633 20.6621 5.48989 20.8317 5.48181C21.0014 5.47373 21.1676 5.43115 21.3203 5.35669C23.1147 4.59819 24.9978 4.00814 26.9502 3.60864C28.9036 3.21014 30.9275 2.99829 33 2.99829C49.5837 2.99829 63.0002 16.4145 63 32.9983C62.9999 49.5815 49.5835 62.9983 33 62.9983C16.4165 62.9983 3.00018 49.5815 3 32.9983C2.99998 30.9255 3.21082 28.9059 3.61035 26.9534C4.00985 25.0011 4.59957 23.1175 5.3584 21.3235C5.73779 20.4265 6.1563 19.5517 6.61816 18.7014C6.70112 18.5568 6.75432 18.3972 6.77464 18.2318C6.79496 18.0663 6.78199 17.8983 6.73648 17.738C6.69097 17.5776 6.61385 17.428 6.50966 17.2979C6.40546 17.1678 6.2763 17.06 6.12976 16.9805C5.98322 16.9011 5.82228 16.8516 5.65638 16.8353C5.49049 16.8189 5.32301 16.836 5.16378 16.8853C5.00456 16.9347 4.85681 17.0151 4.72923 17.1224C4.60165 17.2297 4.49682 17.3616 4.4209 17.51C3.9206 18.4313 3.46498 19.3796 3.05371 20.3518C2.2312 22.2963 1.59216 24.3347 1.15918 26.4504C0.726182 28.5667 0.499977 30.7614 0.5 33.0032C0.500195 50.9374 15.0654 65.4983 33 65.4983C50.9346 65.4983 65.4999 50.9328 65.5 32.9983C65.5002 15.0635 50.9348 0.498291 33 0.498291ZM13.0928 7.6272C12.8115 7.63581 12.5415 7.73902 12.3262 7.92017C11.5237 8.58217 10.7516 9.28478 10.0166 10.0198C9.89712 10.1351 9.8018 10.2728 9.73621 10.4254C9.67062 10.5779 9.63607 10.7421 9.63459 10.9081C9.6331 11.0742 9.66471 11.2388 9.72756 11.3925C9.79041 11.5461 9.88325 11.6858 10.0006 11.8032C10.1181 11.9206 10.2577 12.0135 10.4113 12.0764C10.565 12.1392 10.7297 12.1709 10.8957 12.1694C11.0618 12.168 11.2258 12.1334 11.3784 12.0678C11.5309 12.0022 11.6689 11.9068 11.7842 11.7874C12.463 11.1084 13.1771 10.4601 13.918 9.84888C14.1216 9.68426 14.2685 9.45994 14.3377 9.2074C14.407 8.95486 14.3952 8.68689 14.304 8.44141C14.2128 8.19592 14.0469 7.98539 13.8296 7.83929C13.6122 7.6932 13.3545 7.61895 13.0928 7.6272Z" fill="#DDDDDD"/>
</svg>
