<svg width="70" height="71" viewBox="0 0 70 71" fill="none" xmlns="http://www.w3.org/2000/svg">
<path d="M1.25 0.998291C0.91849 0.998324 0.600566 1.12994 0.366153 1.36435C0.13174 1.59876 3.31461e-05 1.91678 0 2.24829V69.7483C3.31461e-05 70.0798 0.13174 70.3977 0.366153 70.6321C0.600566 70.8665 0.91849 70.9983 1.25 70.9983H68.75C69.0815 70.9983 69.3994 70.8665 69.6339 70.6321C69.8683 70.3977 70 70.0798 70 69.7483V33.2102C70.0023 33.0446 69.9717 32.8802 69.91 32.7265C69.8482 32.5728 69.7565 32.4328 69.6402 32.3148C69.5239 32.1969 69.3853 32.1032 69.2325 32.0392C69.0797 31.9753 68.9157 31.9425 68.75 31.9425C68.5843 31.9425 68.4203 31.9753 68.2675 32.0392C68.1147 32.1032 67.9761 32.1969 67.8598 32.3148C67.7435 32.4328 67.6518 32.5728 67.59 32.7265C67.5283 32.8802 67.4977 33.0446 67.5 33.2102V68.4983H2.5V3.49829H67.5V21.76C67.4977 21.9256 67.5283 22.09 67.59 22.2437C67.6518 22.3974 67.7435 22.5374 67.8598 22.6554C67.9761 22.7734 68.1147 22.867 68.2675 22.931C68.4203 22.9949 68.5843 23.0277 68.75 23.0277C68.9157 23.0277 69.0797 22.9949 69.2325 22.931C69.3853 22.867 69.5239 22.7734 69.6402 22.6554C69.7565 22.5374 69.8482 22.3974 69.91 22.2437C69.9717 22.09 70.0023 21.9256 70 21.76V2.24829C70 1.91678 69.8683 1.59876 69.6339 1.36435C69.3994 1.12994 69.0815 0.998324 68.75 0.998291H1.25ZM68.7305 24.8118C68.3998 24.8169 68.0846 24.9528 67.854 25.1899C67.6234 25.4269 67.4961 25.7457 67.5 26.0764V27.4875V28.4592C67.4977 28.6249 67.5283 28.7892 67.59 28.9429C67.6518 29.0966 67.7435 29.2367 67.8598 29.3546C67.9761 29.4726 68.1147 29.5663 68.2675 29.6302C68.4203 29.6941 68.5843 29.7269 68.75 29.7269C68.9157 29.7269 69.0797 29.6941 69.2325 29.6302C69.3853 29.5663 69.5239 29.4726 69.6402 29.3546C69.7565 29.2367 69.8482 29.0966 69.91 28.9429C69.9717 28.7892 70.0023 28.6249 70 28.4592V27.4875V26.0764C70.002 25.9094 69.9705 25.7437 69.9073 25.5891C69.8441 25.4344 69.7506 25.294 69.6323 25.1761C69.5139 25.0582 69.3731 24.9653 69.2183 24.9027C69.0634 24.8401 68.8975 24.8092 68.7305 24.8118Z" fill="#DDDDDD"/>
<path fill-rule="evenodd" clip-rule="evenodd" d="M1.25 10.9983V13.4983H68.75V10.9983H1.25Z" fill="#DDDDDD"/>
<path d="M7.49998 7.25079C7.49998 7.41495 7.46765 7.57735 7.40483 7.729C7.34202 7.88066 7.24994 8.01851 7.13387 8.13458C7.0178 8.25066 6.88 8.34276 6.72834 8.40558C6.57669 8.4684 6.41414 8.50079 6.24999 8.50079C6.08584 8.50079 5.92329 8.4684 5.77164 8.40558C5.61998 8.34276 5.48218 8.25066 5.36611 8.13458C5.25004 8.01851 5.15796 7.88066 5.09515 7.729C5.03233 7.57735 5 7.41495 5 7.25079C5 7.08664 5.03233 6.92393 5.09515 6.77228C5.15796 6.62062 5.25004 6.48308 5.36611 6.367C5.48218 6.25093 5.61998 6.15883 5.77164 6.09601C5.92329 6.03319 6.08584 6.00079 6.24999 6.00079C6.41414 6.00079 6.57669 6.03319 6.72834 6.09601C6.88 6.15883 7.0178 6.25093 7.13387 6.367C7.24994 6.48308 7.34202 6.62062 7.40483 6.77228C7.46765 6.92393 7.49998 7.08664 7.49998 7.25079ZM12.5 7.25049C12.5 7.41464 12.4677 7.57735 12.4048 7.729C12.342 7.88066 12.2499 8.0182 12.1339 8.13428C12.0178 8.25035 11.88 8.34245 11.7283 8.40527C11.5767 8.46809 11.4141 8.50049 11.25 8.50049C11.0858 8.50049 10.9233 8.46809 10.7716 8.40527C10.62 8.34245 10.4822 8.25035 10.3661 8.13428C10.25 8.0182 10.158 7.88066 10.0951 7.729C10.0323 7.57735 10 7.41464 10 7.25049C10 7.08634 10.0323 6.92393 10.0951 6.77228C10.158 6.62062 10.25 6.48277 10.3661 6.3667C10.4822 6.25063 10.62 6.15852 10.7716 6.0957C10.9233 6.03288 11.0858 6.00049 11.25 6.00049C11.4141 6.00049 11.5767 6.03288 11.7283 6.0957C11.88 6.15852 12.0178 6.25063 12.1339 6.3667C12.2499 6.48277 12.342 6.62062 12.4048 6.77228C12.4677 6.92393 12.5 7.08634 12.5 7.25049ZM17.5001 7.25049C17.5001 7.58202 17.3684 7.89986 17.134 8.13428C16.8995 8.3687 16.5816 8.50049 16.2501 8.50049C15.9185 8.50049 15.6006 8.3687 15.3662 8.13428C15.1317 7.89986 15 7.58202 15 7.25049C15 6.91896 15.1317 6.60112 15.3662 6.3667C15.6006 6.13228 15.9185 6.00049 16.2501 6.00049C16.5816 6.00049 16.8995 6.13228 17.134 6.3667C17.3684 6.60112 17.5001 6.91896 17.5001 7.25049Z" fill="#7F5AF0"/>
<path d="M34.9561 18.5031C34.8228 18.5063 34.6909 18.5309 34.5654 18.5757C30.1371 20.215 23.2581 22.9748 17.5 22.9748C17.1685 22.9749 16.8506 23.1066 16.6162 23.3411C16.3817 23.5755 16.25 23.8933 16.25 24.2248C16.25 45.5753 25.3449 55.425 34.3604 60.8215C34.5538 60.9367 34.7748 60.9976 35 60.9976C35.2252 60.9976 35.4462 60.9367 35.6396 60.8215C44.5568 55.4845 53.75 45.5198 53.75 24.2258C53.75 23.8942 53.6183 23.5761 53.3838 23.3417C53.1494 23.1073 52.8315 22.9758 52.5 22.9758C44.8634 22.9758 39.3966 20.0965 35.4492 18.5812C35.2917 18.5225 35.124 18.4961 34.9561 18.5037V18.5031ZM34.9854 21.0812C38.4291 22.445 43.9028 24.9052 51.1377 25.2512C50.8302 44.4857 43.0361 53.1961 35 58.2004C26.8647 53.1414 19.1577 44.5454 18.8574 25.2414C24.8082 24.8909 30.9305 22.5967 34.9854 21.0812Z" fill="#7F5AF0"/>
<path fill-rule="evenodd" clip-rule="evenodd" d="M38.4424 34.7532L29.834 42.9319L31.5576 44.7483L40.166 36.5696L38.4424 34.7532Z" fill="#7F5AF0"/>
<path fill-rule="evenodd" clip-rule="evenodd" d="M31.5576 34.7532L29.834 36.5696L38.4424 44.7483L40.166 42.9319L31.5576 34.7532Z" fill="#7F5AF0"/>
</svg>
