<svg width="73" height="46" viewBox="0 0 73 46" fill="none" xmlns="http://www.w3.org/2000/svg">
<path d="M33.9795 6.74829C33.648 6.74832 33.3301 6.88009 33.0956 7.1145C32.8612 7.34892 32.7295 7.66678 32.7295 7.99829V9.72681C32.1745 9.90681 31.6395 10.1245 31.1182 10.386L29.9023 9.17017C29.6679 8.93583 29.35 8.80426 29.0186 8.80426C28.6871 8.80426 28.3692 8.93583 28.1348 9.17017L24.9219 12.3831C24.6875 12.6175 24.5558 12.9353 24.5558 13.2668C24.5558 13.5984 24.6875 13.9162 24.9219 14.1506L26.1377 15.3665C25.8747 15.8867 25.6546 16.4238 25.4736 16.9778H23.75C23.4185 16.9778 23.1006 17.1096 22.8662 17.344C22.6317 17.5784 22.5 17.8963 22.5 18.2278V22.7688C22.5 23.1003 22.6317 23.4182 22.8662 23.6526C23.1006 23.887 23.4185 24.0188 23.75 24.0188H25.4736C25.653 24.5743 25.8711 25.1133 26.1328 25.635L24.9219 26.8459C24.6876 27.0804 24.5559 27.3983 24.5559 27.7297C24.5559 28.0612 24.6876 28.3791 24.9219 28.6135L28.1348 31.8264C28.3692 32.0607 28.6871 32.1923 29.0186 32.1923C29.35 32.1923 29.6679 32.0607 29.9023 31.8264L31.1182 30.6106C31.6396 30.8743 32.1741 31.0985 32.7295 31.2795V32.9983C32.7295 33.3298 32.8612 33.6477 33.0956 33.8821C33.3301 34.1165 33.648 34.2483 33.9795 34.2483H38.5205C38.852 34.2483 39.1699 34.1165 39.4044 33.8821C39.6388 33.6477 39.7705 33.3298 39.7705 32.9983V31.2747C40.3269 31.0947 40.8641 30.878 41.3867 30.6155L42.5977 31.8264C42.8321 32.0607 43.15 32.1923 43.4814 32.1923C43.8129 32.1923 44.1308 32.0607 44.3652 31.8264L47.5781 28.6135C47.8124 28.3791 47.9441 28.0612 47.9441 27.7297C47.9441 27.3983 47.8124 27.0804 47.5781 26.8459L46.3623 25.6301C46.6258 25.1086 46.8501 24.5743 47.0312 24.0188H48.75C49.0815 24.0188 49.3994 23.887 49.6338 23.6526C49.8683 23.4182 50 23.1003 50 22.7688V18.2278C50 17.8963 49.8683 17.5784 49.6338 17.344C49.3994 17.1096 49.0815 16.9778 48.75 16.9778H47.0264C46.847 16.4233 46.6237 15.8875 46.3623 15.3665L47.5781 14.1506C47.8125 13.9162 47.9442 13.5984 47.9442 13.2668C47.9442 12.9353 47.8125 12.6175 47.5781 12.3831L44.3652 9.17017C44.1308 8.93583 43.8129 8.80426 43.4814 8.80426C43.15 8.80426 42.8321 8.93583 42.5977 9.17017L41.377 10.3909C40.8568 10.1281 40.3245 9.90267 39.7705 9.72192V7.99829C39.7705 7.66678 39.6388 7.34892 39.4044 7.1145C39.1699 6.88009 38.852 6.74832 38.5205 6.74829H33.9795ZM35.2295 9.24829H37.2705V10.5374C37.2701 10.8208 37.366 11.0962 37.5426 11.318C37.7192 11.5398 37.9658 11.6949 38.2422 11.7581C39.2274 11.9831 40.1694 12.3688 41.0254 12.9055C41.2651 13.0558 41.5487 13.1204 41.8299 13.0886C42.1111 13.0568 42.3731 12.9304 42.5732 12.7303L43.4814 11.8221L44.9268 13.2678L44.0234 14.1711C43.8233 14.3711 43.697 14.633 43.665 14.9142C43.6331 15.1953 43.6975 15.4788 43.8477 15.7186C44.3818 16.5764 44.7648 17.5156 44.9854 18.5018C45.0476 18.7791 45.2024 19.0271 45.4243 19.2047C45.6462 19.3822 45.9219 19.4786 46.2061 19.4784H47.5V21.5194H46.2109C45.9268 21.5192 45.651 21.6159 45.4291 21.7935C45.2072 21.971 45.0524 22.219 44.9902 22.4963C44.7666 23.4815 44.3795 24.4183 43.8428 25.2746C43.6926 25.5144 43.6282 25.7979 43.6601 26.079C43.6921 26.3602 43.8184 26.6221 44.0186 26.8221L44.9268 27.7303L43.4814 29.1757L42.5781 28.2723C42.3783 28.0735 42.1172 27.948 41.8371 27.9162C41.557 27.8844 41.2744 27.9484 41.0352 28.0975C40.1774 28.6315 39.2334 29.0196 38.2471 29.2401C37.9706 29.3021 37.7233 29.4561 37.5459 29.6771C37.3685 29.898 37.2714 30.1725 37.2705 30.4559V31.7498H35.2295V30.4608C35.2288 30.1781 35.1324 29.904 34.9559 29.6832C34.7794 29.4624 34.5334 29.3079 34.2578 29.2449C33.2726 29.0199 32.3306 28.6342 31.4746 28.0975C31.2354 27.9465 30.9521 27.881 30.671 27.9119C30.3898 27.9428 30.1275 28.0682 29.9268 28.2675L29.0186 29.1754L27.5732 27.7303L28.4766 26.827C28.6755 26.6273 28.8012 26.3662 28.8331 26.0861C28.865 25.806 28.8013 25.5234 28.6523 25.2841C28.1182 24.4263 27.7352 23.4871 27.5146 22.5009C27.4534 22.2227 27.2991 21.9735 27.0771 21.795C26.8551 21.6165 26.5788 21.5192 26.2939 21.5191H25V19.4781H26.2891C26.5725 19.4785 26.8477 19.3827 27.0695 19.2062C27.2914 19.0297 27.4466 18.7831 27.5098 18.5067C27.7334 17.5212 28.1205 16.5795 28.6572 15.7235C28.8075 15.4837 28.8719 15.2 28.84 14.9188C28.808 14.6376 28.6816 14.3754 28.4814 14.1754L27.5732 13.2675L29.0186 11.8218L29.9219 12.7255C30.1211 12.9251 30.3819 13.0517 30.662 13.0844C30.9421 13.117 31.2251 13.054 31.4648 12.9055C32.3226 12.3715 33.2666 11.9834 34.2529 11.7629C34.5302 11.7008 34.778 11.546 34.9556 11.3241C35.1331 11.1022 35.2297 10.8264 35.2295 10.5422V9.24829Z" fill="#7F5AF0"/>
<path d="M6.25 0.498291C5.91849 0.498324 5.60057 0.630089 5.36615 0.864502C5.13174 1.09892 5.00003 1.41678 5 1.74829V39.2483C5.00003 39.5798 5.13174 39.8977 5.36615 40.1321C5.60057 40.3665 5.91849 40.4983 6.25 40.4983H65.0488C65.3803 40.4983 65.6983 40.3665 65.9327 40.1321C66.1671 39.8977 66.2988 39.5798 66.2988 39.2483V1.74829C66.2988 1.41678 66.1671 1.09892 65.9327 0.864502C65.6983 0.630089 65.3803 0.498324 65.0488 0.498291H6.25ZM7.5 2.99829H63.7988V37.9983H7.5V2.99829Z" fill="white"/>
<path d="M1.25 37.9983C0.91849 37.9983 0.600566 38.1301 0.366153 38.3645C0.13174 38.5989 3.31461e-05 38.9168 0 39.2483C0 42.7698 3.14917 45.4983 6.85059 45.4983H65.6494C69.3508 45.4983 72.5 42.7698 72.5 39.2483C72.5 38.9168 72.3683 38.5989 72.1339 38.3645C71.8994 38.1301 71.5815 37.9983 71.25 37.9983H1.25ZM3.08594 40.4983H69.4141C68.7965 41.8715 67.5585 42.9983 65.6494 42.9983H6.85059C4.94152 42.9983 3.70345 41.8715 3.08594 40.4983Z" fill="white"/>
<path d="M36.25 14.2483C32.813 14.2483 30 17.0613 30 20.4983C30 23.9353 32.813 26.7483 36.25 26.7483C39.687 26.7483 42.5 23.9353 42.5 20.4983C42.5 17.0613 39.687 14.2483 36.25 14.2483ZM36.25 16.7483C38.3359 16.7483 40 18.4125 40 20.4983C40 22.5843 38.3359 24.2483 36.25 24.2483C34.1641 24.2483 32.5 22.5843 32.5 20.4983C32.5 18.4125 34.1641 16.7483 36.25 16.7483Z" fill="#7F5AF0"/>
</svg>
