<svg width="76" height="76" viewBox="0 0 76 76" fill="none" xmlns="http://www.w3.org/2000/svg">
<path d="M21.75 20.4983C21.4185 20.4983 21.1006 20.6301 20.8662 20.8645C20.6317 21.0989 20.5 21.4168 20.5 21.7483V74.2483C20.5 74.5798 20.6317 74.8977 20.8662 75.1321C21.1006 75.3665 21.4185 75.4983 21.75 75.4983H74.25C74.5815 75.4983 74.8994 75.3665 75.1338 75.1321C75.3683 74.8977 75.5 74.5798 75.5 74.2483V34.3313V21.7483C75.5 21.4168 75.3683 21.0989 75.1338 20.8645C74.8994 20.6301 74.5815 20.4983 74.25 20.4983H21.75ZM23 22.9983H73V34.3313V72.9983H23V22.9983Z" fill="white"/>
<path fill-rule="evenodd" clip-rule="evenodd" d="M20.4998 1.75793V41.7483H22.9998V1.75793H20.4998ZM13.7078 2.66629C8.5461 15.3773 7.69224 27.4956 13.3172 40.6839L15.617 39.7024C10.2406 27.0967 11.0338 15.9003 16.0272 3.60379L13.7078 2.66629ZM29.6307 2.66843L27.3114 3.60593C29.6621 9.39493 31.0367 14.9372 31.3201 20.5005H33.7908C33.5087 14.5717 32.0746 8.68668 29.6307 2.66843Z" fill="#7F5AF0"/>
<path fill-rule="evenodd" clip-rule="evenodd" d="M21.75 30.4983V32.9983H74.25V30.4983H21.75Z" fill="white"/>
<path d="M28.0001 26.7505C28 27.082 27.8683 27.3999 27.6339 27.6343C27.3995 27.8687 27.0816 28.0005 26.75 28.0005C26.4185 28.0005 26.1006 27.8687 25.8661 27.6343C25.6317 27.3999 25.5 27.082 25.5 26.7505C25.5 26.419 25.6317 26.1011 25.8661 25.8667C26.1006 25.6323 26.4185 25.5005 26.75 25.5005C27.0816 25.5005 27.3995 25.6323 27.6339 25.8667C27.8683 26.1011 28 26.419 28.0001 26.7505ZM33 26.7505C33 27.082 32.8683 27.3999 32.6339 27.6343C32.3995 27.8687 32.0815 28.0005 31.75 28.0005C31.4185 28.0005 31.1006 27.8687 30.8661 27.6343C30.6317 27.3999 30.5 27.082 30.5 26.7505C30.5 26.419 30.6317 26.1011 30.8661 25.8667C31.1006 25.6323 31.4185 25.5005 31.75 25.5005C32.0815 25.5005 32.3995 25.6323 32.6339 25.8667C32.8683 26.1011 33 26.419 33 26.7505ZM38 26.7505C38 27.082 37.8683 27.3999 37.6339 27.6343C37.3995 27.8687 37.0815 28.0005 36.75 28.0005C36.4185 28.0005 36.1006 27.8687 35.8661 27.6343C35.6317 27.3999 35.5 27.082 35.5 26.7505C35.5 26.419 35.6317 26.1011 35.8661 25.8667C36.1006 25.6323 36.4185 25.5005 36.75 25.5005C37.0815 25.5005 37.3995 25.6323 37.6339 25.8667C37.8683 26.1011 38 26.419 38 26.7505Z" fill="#7F5AF0"/>
<path d="M21.75 0.498291C10.0288 0.498291 0.5 10.027 0.5 21.7483C0.5 33.4695 10.0288 42.9983 21.75 42.9983C22.0815 42.9983 22.3994 42.8665 22.6338 42.6321C22.8683 42.3977 23 42.0798 23 41.7483V22.9983H41.75C42.0815 22.9983 42.3994 22.8665 42.6338 22.6321C42.8683 22.3977 43 22.0798 43 21.7483C43 10.027 33.4712 0.498291 21.75 0.498291ZM21.75 2.99829C31.6763 2.99829 39.5707 10.7463 40.2461 20.4983H21.75C21.4185 20.4983 21.1006 20.6301 20.8662 20.8645C20.6317 21.0989 20.5 21.4168 20.5 21.7483V40.2444C10.7479 39.5689 3 31.6748 3 21.7483C3 11.3783 11.3799 2.99829 21.75 2.99829Z" fill="#7F5AF0"/>
<path fill-rule="evenodd" clip-rule="evenodd" d="M1.75488 20.5032V23.0032H41.7451V20.5032H1.75488ZM4.0791 10.4983V12.9983H39.0938V10.4983H4.0791ZM4.40625 30.4983V32.9983H21.5254V30.4983H4.40625Z" fill="#7F5AF0"/>
</svg>
