<svg width="57" height="57" viewBox="0 0 57 57" fill="none" xmlns="http://www.w3.org/2000/svg">
<path d="M5.52838 43.135C5.26929 43.1389 5.01782 43.2233 4.80875 43.3764C4.59969 43.5295 4.44336 43.7437 4.36138 43.9895L0.821345 54.595C0.747669 54.8153 0.736866 55.0518 0.79015 55.278C0.843434 55.5041 0.958696 55.7112 1.123 55.8755C1.2873 56.0398 1.49414 56.1549 1.72031 56.2081C1.94647 56.2614 2.18301 56.2507 2.40338 56.177L13.0088 52.6418C13.2115 52.575 13.3936 52.4575 13.5379 52.3004C13.6823 52.1432 13.784 51.9519 13.8334 51.7443C13.8829 51.5368 13.8784 51.3201 13.8204 51.1147C13.7623 50.9094 13.6527 50.7225 13.502 50.5715L6.42681 43.5012C6.30902 43.3834 6.16886 43.2904 6.01458 43.2275C5.86029 43.1646 5.69498 43.1331 5.52838 43.135ZM6.0899 46.6995L10.2989 50.9084L3.98541 53.0129L6.0899 46.6995ZM49.7374 0.498291C48.4554 0.498291 47.1739 0.986502 46.2022 1.95825L43.5508 4.60962C43.3165 4.84405 43.1849 5.16196 43.1849 5.49341C43.1849 5.82485 43.3165 6.14277 43.5508 6.3772L50.6212 13.4475C50.8556 13.6818 51.1735 13.8134 51.5049 13.8134C51.8364 13.8134 52.1543 13.6818 52.3887 13.4475L55.0401 10.7961C56.9836 8.85264 56.9836 5.66933 55.0401 3.72583L53.2725 1.95825C52.3008 0.986502 51.0193 0.498291 49.7374 0.498291ZM49.7374 2.97876C50.3726 2.97876 51.0076 3.22883 51.5049 3.72583L53.2725 5.49341C54.2671 6.48791 54.2671 8.03406 53.2725 9.02856L51.5049 10.7961L46.2022 5.49341L47.9698 3.72583C48.4671 3.22858 49.1021 2.97876 49.7374 2.97876Z" fill="#DDDDDD"/>
<path d="M9.24874 39.3946C8.92434 39.4037 8.61616 39.5385 8.38937 39.7706L4.6589 43.5011C4.42459 43.7355 4.29297 44.0534 4.29297 44.3849C4.29297 44.7163 4.42459 45.0342 4.6589 45.2687L11.7341 52.339C11.9685 52.5733 12.2864 52.7052 12.6179 52.7052C12.9493 52.7052 13.2672 52.5733 13.5017 52.339L17.3054 48.5304C17.4255 48.4152 17.5215 48.2772 17.5876 48.1245C17.6538 47.9718 17.6888 47.8075 17.6905 47.6411C17.6923 47.4747 17.6608 47.3096 17.598 47.1556C17.5351 47.0015 17.4421 46.8612 17.3244 46.7436C17.2068 46.6259 17.0668 46.533 16.9127 46.4701C16.7586 46.4073 16.5935 46.3759 16.4271 46.3777C16.2607 46.3794 16.0963 46.4144 15.9436 46.4805C15.7909 46.5467 15.6529 46.6426 15.5378 46.7628L12.6179 49.6876L7.31027 44.3849L10.1569 41.5382C10.3367 41.3625 10.4592 41.1365 10.5087 40.89C10.5581 40.6435 10.5321 40.3881 10.434 40.1567C10.336 39.9252 10.1704 39.7286 9.95896 39.5927C9.74752 39.4568 9.50001 39.3878 9.24874 39.3946Z" fill="#7F5AF0"/>
<path fill-rule="evenodd" clip-rule="evenodd" d="M14.7959 40.4348L11.7686 43.4622L9.07812 46.1526L10.8457 47.9202L13.5361 45.2297L16.5635 42.2024L14.7959 40.4348Z" fill="#7F5AF0"/>
<path d="M33.2286 4.72192C32.9799 4.72225 32.7369 4.79668 32.5308 4.93585C32.3246 5.07502 32.1647 5.27261 32.0714 5.50317L30.67 8.9895C29.1772 8.8295 27.6782 8.8421 26.1876 9.0246L24.7179 5.58191C24.6535 5.43091 24.5599 5.29422 24.4426 5.17938C24.3252 5.06454 24.1864 4.97385 24.0341 4.91266C23.8817 4.85146 23.7188 4.82086 23.5547 4.82263C23.3905 4.8244 23.2283 4.85857 23.0773 4.92303L15.5529 8.13104C15.4019 8.19547 15.265 8.289 15.1502 8.40631C15.0353 8.52362 14.9447 8.6623 14.8835 8.81464C14.8223 8.96697 14.7917 9.1299 14.7934 9.29407C14.7952 9.45823 14.8292 9.62036 14.8937 9.77136L16.3634 13.2186C15.1983 14.1641 14.1539 15.2371 13.2335 16.4221L9.7472 15.0204C9.43961 14.8968 9.09553 14.9004 8.79061 15.0305C8.48569 15.1605 8.24491 15.4065 8.12122 15.7141L5.06946 23.3016C5.00748 23.4542 4.97625 23.6176 4.97758 23.7823C4.9789 23.947 5.01275 24.1099 5.07718 24.2614C5.14161 24.413 5.23535 24.5502 5.35301 24.6655C5.47068 24.7807 5.60995 24.8716 5.76282 24.9328L9.24915 26.3339C9.08845 27.8264 9.10134 29.3214 9.28333 30.8114L5.84095 32.2811C5.68992 32.3456 5.55306 32.4391 5.43819 32.5564C5.32332 32.6737 5.23269 32.8127 5.17147 32.965C5.11026 33.1174 5.07966 33.2803 5.08143 33.4445C5.0832 33.6087 5.11729 33.771 5.18177 33.9221L8.38978 41.4462C8.4542 41.5972 8.54774 41.7341 8.66506 41.849C8.78238 41.9639 8.92118 42.0545 9.07353 42.1157C9.22588 42.1769 9.3888 42.2075 9.55298 42.2057C9.71716 42.204 9.87939 42.1698 10.0304 42.1053L13.4825 40.6356C14.4276 41.7999 15.4965 42.8506 16.6808 43.7704L15.2794 47.2518C15.1558 47.5594 15.1594 47.9036 15.2894 48.2086C15.4194 48.5135 15.6653 48.7544 15.9728 48.8781L23.5607 51.9344C23.8682 52.0581 24.2123 52.0544 24.5172 51.9244C24.8221 51.7944 25.0629 51.5486 25.1866 51.2411L26.588 47.7499C28.0819 47.9124 29.5789 47.9025 31.0704 47.72L32.5402 51.1624C32.6046 51.3134 32.6982 51.4503 32.8155 51.5652C32.9328 51.68 33.0716 51.7707 33.224 51.8319C33.3763 51.8931 33.5392 51.9237 33.7034 51.9219C33.8676 51.9202 34.0298 51.886 34.1808 51.8215L41.7052 48.6135C41.8562 48.5491 41.993 48.4556 42.1079 48.3383C42.2227 48.2209 42.3134 48.082 42.3746 47.9296C42.4358 47.7773 42.4664 47.6144 42.4646 47.4502C42.4629 47.286 42.4288 47.1239 42.3644 46.9729L40.8947 43.5208C42.0597 42.5753 43.1091 41.5075 44.0294 40.3225L47.5109 41.7239C47.8185 41.8475 48.1625 41.8439 48.4675 41.7138C48.7724 41.5838 49.0132 41.3381 49.1368 41.0305L52.1886 33.4377C52.3125 33.1308 52.3096 32.7871 52.1805 32.4822C52.0515 32.1774 51.8068 31.9364 51.5001 31.8118L48.0089 30.4104C48.1697 28.9174 48.1617 27.4182 47.9796 25.928L51.422 24.4631C51.573 24.3987 51.7099 24.3052 51.8248 24.1879C51.9396 24.0705 52.0303 23.9319 52.0915 23.7795C52.1527 23.6272 52.1833 23.464 52.1815 23.2998C52.1798 23.1356 52.1457 22.9735 52.0812 22.8225L49.1954 16.0598C49.0653 15.7548 48.8193 15.5139 48.5116 15.3903C48.2039 15.2666 47.8598 15.2705 47.5548 15.4006C47.2498 15.5308 47.009 15.7765 46.8854 16.0842C46.7618 16.3919 46.7655 16.7363 46.8956 17.0413L49.2882 22.6516L46.2511 23.9456C45.9911 24.0561 45.7762 24.2512 45.6414 24.4995C45.5066 24.7477 45.4599 25.0345 45.5089 25.3127C45.8454 27.2125 45.8578 29.1602 45.548 31.0647C45.5034 31.3449 45.5555 31.6319 45.6957 31.8786C45.8359 32.1253 46.0559 32.317 46.3195 32.4221L49.4054 33.6672L47.2863 38.9358L44.2052 37.6956C43.9421 37.5899 43.6509 37.5767 43.3795 37.6583C43.108 37.74 42.8723 37.9116 42.7111 38.1448C41.6115 39.7298 40.2538 41.118 38.6925 42.2512C38.4631 42.4177 38.297 42.6573 38.2216 42.9305C38.1462 43.2038 38.1659 43.4945 38.2775 43.7551L39.5763 46.802L34.3517 49.0334L33.0529 45.9915C32.9424 45.7315 32.7471 45.5165 32.4988 45.3817C32.2505 45.2469 31.9639 45.2003 31.6857 45.2493C29.7857 45.5855 27.8432 45.5982 25.9386 45.2892C25.6576 45.2435 25.3694 45.2951 25.1217 45.4354C24.874 45.5757 24.6816 45.7962 24.5763 46.0607L23.3361 49.1467L18.0626 47.0278L19.3029 43.9465C19.409 43.6839 19.4228 43.3933 19.342 43.1219C19.2613 42.8505 19.0909 42.6142 18.8585 42.4523C17.2734 41.3526 15.8804 39.9953 14.7472 38.4341C14.581 38.2057 14.3424 38.0401 14.0701 37.9647C13.7979 37.8893 13.5082 37.9084 13.2482 38.0187L10.2013 39.3179L7.96986 34.093L11.0119 32.7941C11.2709 32.6828 11.4848 32.4872 11.6186 32.239C11.7525 31.9908 11.7985 31.7046 11.7492 31.4269C11.4126 29.5269 11.4003 27.5844 11.7101 25.6799C11.7562 25.3995 11.7053 25.1118 11.566 24.8641C11.4266 24.6165 11.2071 24.424 10.9435 24.3179L7.85756 23.0773L9.9767 17.8091L13.0529 19.0441C13.3154 19.1503 13.6062 19.1642 13.8777 19.0835C14.1491 19.0028 14.3851 18.8324 14.547 18.6001C15.6466 17.0148 17.0093 15.6263 18.5704 14.4933C18.7999 14.3269 18.966 14.0873 19.0414 13.814C19.1168 13.5407 19.0971 13.25 18.9855 12.9894L17.6867 9.94287L22.9064 7.71112L24.2052 10.7531C24.3166 11.0122 24.5122 11.226 24.7604 11.3598C25.0086 11.4936 25.2948 11.5397 25.5724 11.4904C27.4723 11.1539 29.415 11.1412 31.3195 11.4504C31.5999 11.4965 31.8876 11.4458 32.1353 11.3064C32.3829 11.167 32.5757 10.9474 32.6818 10.6838L33.922 7.5979L40.3527 10.1809C40.6603 10.3052 41.0046 10.3023 41.31 10.1727C41.6154 10.0431 41.8569 9.79757 41.9812 9.48999C42.1055 9.18241 42.1025 8.83806 41.9729 8.53265C41.8434 8.22725 41.5978 7.98589 41.2902 7.86157L33.6974 4.80981C33.5482 4.75084 33.3891 4.72105 33.2287 4.72223L33.2286 4.72192Z" fill="#DDDDDD"/>
<path  fill-rule="evenodd" clip-rule="evenodd" d="M47.9697 7.26099L28.5264 26.7092L30.2939 28.4768L49.7373 9.02856L47.9697 7.26099Z" fill="#DDDDDD"/>
<path d="M44.415 4.24341C44.0902 4.2486 43.7803 4.37991 43.5507 4.60962L17.3349 30.8254C17.3181 30.8417 17.3019 30.8584 17.2861 30.8755L17.0956 31.0903C16.9823 31.2119 16.8943 31.3549 16.8369 31.5109C16.7794 31.6668 16.7536 31.8325 16.761 31.9985C16.7684 32.1645 16.8088 32.3274 16.8798 32.4777C16.9509 32.6279 17.0512 32.7625 17.1749 32.8735C17.2985 32.9845 17.4431 33.0696 17.6001 33.124C17.7571 33.1785 17.9233 33.2011 18.0892 33.1906C18.255 33.18 18.4171 33.1366 18.5659 33.0627C18.7148 32.9888 18.8474 32.886 18.956 32.7603L19.1269 32.5701L44.4345 7.26251L49.7372 12.5652L24.4443 37.8582L24.1367 38.1658C24.0172 38.2811 23.9219 38.4189 23.8563 38.5714C23.7907 38.7239 23.7561 38.8882 23.7546 39.0542C23.7532 39.2202 23.7848 39.3848 23.8476 39.5385C23.9105 39.6922 24.0033 39.8319 24.1207 39.9493C24.2381 40.0667 24.3777 40.1595 24.5314 40.2224C24.6851 40.2853 24.8497 40.317 25.0158 40.3155C25.1818 40.314 25.3459 40.2794 25.4984 40.2139C25.651 40.1483 25.7889 40.0529 25.9042 39.9334L26.2118 39.6258L52.3886 13.449C52.6229 13.2146 52.7545 12.8967 52.7545 12.5652C52.7545 12.2338 52.6229 11.9159 52.3886 11.6815L45.3183 4.61115C45.1999 4.49271 45.059 4.3994 44.9038 4.33649C44.7486 4.27357 44.5824 4.24238 44.415 4.24493L44.415 4.24341Z" fill="#7F5AF0"/>
<path fill-rule="evenodd" clip-rule="evenodd" d="M47.9697 7.26099L20.3135 34.9465L22.0859 36.7092L49.7373 9.02856L47.9697 7.26099Z" fill="#7F5AF0"/>
<path d="M27.989 15.8888C23.8694 16.1038 20.0012 18.356 17.8328 22.0705C14.9416 27.0232 15.7996 33.3231 19.908 37.3244C24.0164 41.3256 30.3409 42.0153 35.2156 38.9943C40.0903 35.9733 42.283 30.0058 40.5281 24.5461C40.4827 24.3841 40.405 24.233 40.2998 24.1017C40.1946 23.9705 40.064 23.8621 39.9158 23.7825C39.7676 23.703 39.6049 23.654 39.4374 23.6388C39.2698 23.6236 39.101 23.6424 38.9409 23.694C38.7808 23.7456 38.6328 23.8289 38.5057 23.9391C38.3786 24.0492 38.275 24.1841 38.2012 24.3352C38.1273 24.4863 38.0848 24.6506 38.076 24.8186C38.0672 24.9866 38.0925 25.1547 38.1502 25.3127C39.5577 29.6917 37.8069 34.4473 33.8972 36.8703C29.9876 39.293 24.9462 38.7416 21.6511 35.5324C18.3561 32.3232 17.6722 27.3025 19.991 23.3303C22.3098 19.358 27.0217 17.4831 31.4363 18.7746C31.7549 18.8678 32.0975 18.8308 32.3887 18.6714C32.6799 18.5121 32.8959 18.2436 32.9891 17.925C33.0823 17.6064 33.0452 17.2637 32.8859 16.9725C32.7265 16.6813 32.458 16.4655 32.1394 16.3722C30.7634 15.9697 29.3622 15.8173 27.989 15.8888Z" fill="#DDDDDD"/>
<path d="M44.4153 4.24355C44.0905 4.24874 43.7806 4.38005 43.551 4.60976L30.4455 17.7152L27.1643 20.9965C27.0448 21.1118 26.9495 21.2495 26.8839 21.4021C26.8183 21.5546 26.7838 21.7188 26.7823 21.8848C26.7808 22.0509 26.8124 22.2155 26.8752 22.3692C26.9381 22.5229 27.0309 22.6625 27.1483 22.7799C27.2657 22.8973 27.4054 22.9902 27.559 23.0531C27.7127 23.1159 27.8774 23.1476 28.0434 23.1461C28.2094 23.1447 28.3735 23.1101 28.5261 23.0445C28.6786 22.9789 28.8166 22.8835 28.9319 22.7641L32.2131 19.4828L44.4348 7.26113L47.0862 9.9125L49.7375 12.5639L37.5354 24.7709L34.2639 28.0424C34.1437 28.1575 34.0478 28.2956 33.9816 28.4483C33.9155 28.601 33.8805 28.7653 33.8787 28.9317C33.8769 29.0981 33.9084 29.2631 33.9713 29.4172C34.0341 29.5713 34.1271 29.7112 34.2448 29.8289C34.3625 29.9466 34.5025 30.0398 34.6566 30.1026C34.8107 30.1655 34.9758 30.1969 35.1422 30.1951C35.3086 30.1933 35.473 30.1584 35.6257 30.0922C35.7784 30.0261 35.9163 29.9301 36.0315 29.81L39.303 26.5385L52.3889 13.4477C52.6232 13.2132 52.7548 12.8953 52.7548 12.5639C52.7548 12.2324 52.6232 11.9145 52.3889 11.6801L48.8537 8.14492L45.3186 4.60976C45.2002 4.49133 45.0593 4.39802 44.9041 4.33511C44.7489 4.27219 44.5827 4.24099 44.4153 4.24355Z" fill="#7F5AF0"/>
</svg>
