<svg width="70" height="56" viewBox="0 0 70 56" fill="none" xmlns="http://www.w3.org/2000/svg">
<path d="M16.25 0.498291C15.9185 0.498324 15.6006 0.630089 15.3662 0.864502C15.1317 1.09892 15 1.41678 15 1.74829V14.2483C15 14.5798 15.1317 14.8977 15.3662 15.1321C15.6006 15.3665 15.9185 15.4983 16.25 15.4983H27.5V39.2483C27.5 39.5798 27.6317 39.8977 27.8662 40.1321C28.1006 40.3665 28.4185 40.4983 28.75 40.4983H41.25C41.5815 40.4983 41.8994 40.3665 42.1338 40.1321C42.3683 39.8977 42.5 39.5798 42.5 39.2483V15.4983H53.75C54.0815 15.4983 54.3994 15.3665 54.6338 15.1321C54.8683 14.8977 55 14.5798 55 14.2483V1.74829C55 1.41678 54.8683 1.09892 54.6338 0.864502C54.3994 0.630089 54.0815 0.498324 53.75 0.498291H41.25H28.75H16.25ZM17.5 2.99829H28.75H41.25H52.5V12.9983H41.25C40.9185 12.9983 40.6006 13.1301 40.3662 13.3645C40.1317 13.5989 40 13.9168 40 14.2483V37.9983H30V14.2483C30 13.9168 29.8683 13.5989 29.6338 13.3645C29.3994 13.1301 29.0815 12.9983 28.75 12.9983H17.5V2.99829Z" fill="white"/>
<path d="M27.5 43.0004H30V45.5004H27.5V43.0004ZM27.5 48.0004H30V50.5004H27.5V48.0004ZM27.5 53.0004H30V55.5004H27.5V53.0004ZM40 43.0004H42.5V45.5004H40V43.0004ZM40 48.0004H42.5V50.5004H40V48.0004ZM40 53.0004H42.5V55.5004H40V53.0004Z" fill="#7F5AF0"/>
<path d="M0 15.5004L0 13.0004H2.5V15.5004H0ZM5 15.5004V13.0004H7.5V15.5004H5ZM10 15.5004V13.0004H12.5V15.5004H10ZM0 3.00043L0 0.500427H2.5V3.00043H0ZM5 3.00043V0.500427H7.5V3.00043H5ZM10 3.00043L10 0.500427H12.5L12.5 3.00043H10ZM57.5 15.5004V13.0004H60V15.5004H57.5ZM62.5 15.5004V13.0004H65V15.5004H62.5ZM67.5 15.5004V13.0004H70V15.5004H67.5ZM57.5 3.00043V0.500427H60V3.00043H57.5ZM62.5 3.00043V0.500427H65V3.00043H62.5ZM67.5 3.00043V0.500427H70V3.00043H67.5Z" fill="#7F5AF0"/>
</svg>
