<svg width="77" height="77" viewBox="0 0 77 77" fill="none" xmlns="http://www.w3.org/2000/svg">
<path fill-rule="evenodd" clip-rule="evenodd" d="M13.4741 57.605L7.5528 63.5266L8.73707 64.7107L14.6584 58.7894L13.4741 57.605ZM6.36853 64.7107L5.18427 65.8951L6.36853 67.0792L7.5528 65.8951L6.36853 64.7107ZM15.8427 59.9734L6.36853 69.4476L7.5528 70.632L17.0269 61.1578L15.8427 59.9734ZM5.18427 70.632L4 71.8164L5.18427 73.0005L6.36853 71.8164L5.18427 70.632ZM18.2112 62.3422L11.1056 69.4476L12.2899 70.632L19.3955 63.5266L18.2112 62.3422ZM9.92134 70.632L8.73707 71.8164L9.92134 73.0005L11.1056 71.8164L9.92134 70.632Z" fill="#7F5AF0"/>
<path d="M53.1802 30.3049C52.3778 31.1073 51.2895 31.5579 50.1547 31.5579C49.0199 31.5579 47.9316 31.1073 47.1292 30.3049C46.3268 29.5025 45.876 28.4141 45.876 27.2794C45.876 26.1446 46.3268 25.0563 47.1292 24.2538C47.9316 23.4514 49.0199 23.0005 50.1547 23.0005C51.2895 23.0005 52.3778 23.4514 53.1802 24.2538C53.9826 25.0563 54.4334 26.1446 54.4334 27.2794C54.4334 28.4141 53.9826 29.5025 53.1802 30.3049Z" fill="#7F5AF0"/>
<path d="M55.9982 20.795L55.0764 20.0388L54.8657 19.9039L53.709 19.2929L52.6043 18.7128L51.4406 20.9259L52.5455 21.506L53.5986 22.0618L54.4204 22.7319L55.3837 23.5226L56.9683 21.5854L55.9982 20.795ZM56.1812 24.9414L56.302 26.188L56.4055 27.2791L56.295 28.4393L56.1777 29.6823L58.6635 29.9249L58.7845 28.6786L58.9055 27.3975L58.9054 27.1625L58.7914 25.9509L58.6706 24.7043L56.1812 24.9414ZM47.8879 18.851L46.973 19.1238L46.745 19.2139L45.4399 19.9045L45.2327 20.0421L45.1739 20.087L44.2071 20.874L45.7885 22.8146L46.7069 22.0621L47.791 21.4886L48.5956 21.2512L49.7935 20.8954L49.0857 18.4961L47.8879 18.851ZM52.8356 32.9001L52.511 33.0725L51.3613 33.4146L50.9193 33.4546L49.673 33.5745L49.9113 36.0641L51.1576 35.9439L51.7065 35.8914L51.9448 35.8466L53.3328 35.4324L53.5608 35.3424L53.9992 35.1123L55.1075 34.5288L53.9439 32.3157L52.8356 32.9001ZM42.1945 23.4329L41.8389 24.631L41.5869 25.4907L41.5384 25.7257L41.4004 27.1622L41.4004 27.3972L41.4179 27.5595L41.5386 28.8062L44.028 28.5684L43.9037 27.3254L43.9012 27.2879L44.0185 26.0934L44.236 25.3442L44.5916 24.1461L42.1945 23.4329ZM46.8314 32.565L46.7209 32.5024L45.7368 31.698L45.3571 31.2357L44.5629 30.2686L42.6295 31.85L43.4167 32.8168L43.8759 33.3795L44.0519 33.5544L45.2326 34.5142L45.4399 34.6518L45.6641 34.7717L46.7726 35.3555L47.9361 33.1424L46.8314 32.565Z" fill="#7F5AF0"/>
<path fill-rule="evenodd" clip-rule="evenodd" d="M28.307 22.632C24.0347 22.1055 19.3823 23.6446 15.06 26.6701C9.29685 30.7038 3.96428 37.4029 0.352946 45.8547C0.244545 46.1091 0.223589 46.3924 0.29336 46.66C0.363132 46.9277 0.519691 47.1647 0.738523 47.3338C0.957356 47.503 1.2261 47.5947 1.50269 47.5948C1.77927 47.5948 2.04808 47.5032 2.26701 47.3341C7.49797 43.2766 11.5887 41.1205 14.4692 40.63C17.3496 40.1393 18.9654 40.9555 20.3774 43.4132C20.4925 43.6145 20.6614 43.7798 20.8651 43.8905C21.0688 44.0013 21.2993 44.0531 21.5309 44.0404C21.7624 44.0277 21.9858 43.9509 22.1762 43.8185C22.3666 43.6861 22.5163 43.5032 22.6088 43.2906C25.5006 36.6173 28.9968 30.7829 32.8578 25.7466C32.9702 25.6006 33.0489 25.4316 33.0884 25.2516C33.1278 25.0716 33.1269 24.8853 33.0859 24.7057C33.0448 24.526 32.9646 24.3575 32.8509 24.2125C32.7372 24.0675 32.5928 23.9494 32.4281 23.8667C31.1141 23.2097 29.7312 22.8071 28.307 22.6314V22.632ZM24.3031 25.2345C26.2557 24.8815 28.0161 25.3596 29.7426 25.9084C26.5349 30.3099 23.6076 35.2471 21.0854 40.7716C19.2735 38.8401 16.9466 37.6707 14.0492 38.1642C11.5435 38.591 8.56672 40.1703 5.309 42.2756C8.52612 36.5386 12.3364 31.6319 16.4955 28.7209C19.1392 26.8704 21.7879 25.6893 24.3031 25.2345ZM52.0278 43.8869C51.7489 43.8847 51.4774 43.9758 51.2563 44.1457C46.2202 48.0069 40.3905 51.5076 33.7172 54.3996C33.5056 54.4921 33.3237 54.6415 33.1918 54.8311C33.0599 55.0207 32.9831 55.2432 32.9699 55.4738C32.9568 55.7044 33.0078 55.9342 33.1173 56.1376C33.2268 56.3409 33.3905 56.5101 33.5903 56.6261C36.0482 58.0381 36.869 59.6538 36.3783 62.5343C35.8877 65.4148 33.7267 69.5055 29.6694 74.7365C29.4979 74.9552 29.4042 75.2249 29.403 75.5028C29.4019 75.7807 29.4934 76.0508 29.6631 76.2709C29.8328 76.491 30.071 76.6484 30.34 76.718C30.6091 76.7876 30.8937 76.7656 31.1488 76.6554C39.6005 73.0442 46.2996 67.7065 50.3334 61.9435C54.3672 56.1803 55.7642 49.8316 53.1362 44.5754C53.0327 44.3697 52.8745 44.1967 52.6789 44.0752C52.4833 43.9537 52.258 43.8884 52.0278 43.8869H52.0278ZM51.0951 47.2609C52.351 51.2114 51.5694 55.8122 48.2826 60.508C45.3705 64.6687 40.4677 68.4816 34.7279 71.6994C36.8343 68.4404 38.4123 65.4608 38.8393 62.9543C39.3328 60.0563 38.1642 57.7301 36.2319 55.9181C41.7553 53.3964 46.6942 50.4679 51.0951 47.2609ZM17.5649 46.6506L16.769 48.1154L14.0395 53.1203L24.0688 63.0568L30.3139 59.3947L17.5649 46.6506ZM18.1606 50.7814L26.2563 58.8771L24.4643 59.9269L17.1352 52.6662L18.1606 50.7814ZM55.1772 5.43458C54.9278 5.43364 54.6838 5.50739 54.4766 5.64622C54.2694 5.78505 54.1085 5.98267 54.0145 6.21369C53.9205 6.44471 53.8978 6.69856 53.9492 6.94261C54.0007 7.18665 54.1239 7.40974 54.3031 7.58317L69.7426 23.0617C69.8575 23.1818 69.9952 23.2777 70.1476 23.344C70.3001 23.4102 70.4642 23.4454 70.6304 23.4474C70.7966 23.4495 70.9615 23.4183 71.1155 23.3559C71.2696 23.2934 71.4096 23.2012 71.5275 23.084C71.6453 22.9668 71.7386 22.8272 71.8019 22.6735C71.8652 22.5198 71.8972 22.3551 71.896 22.1889C71.8949 22.0227 71.8606 21.8583 71.7952 21.7055C71.7297 21.5527 71.6345 21.4145 71.5151 21.299L56.0707 5.81559C55.9547 5.69567 55.8159 5.60026 55.6625 5.53483C55.509 5.4694 55.344 5.43525 55.1772 5.43458Z" fill="#DDDDDD"/>
<path fill-rule="evenodd" clip-rule="evenodd" d="M75.2502 0.498291C68.0511 0.498291 61.4408 2.0038 55.4504 4.5463C55.4086 4.56488 55.3678 4.58565 55.3283 4.6087L53.5217 5.62418C37.0801 13.9612 25.6399 29.372 19.6838 43.8372C19.5906 44.0652 19.5668 44.3157 19.6154 44.5571C19.6641 44.7986 19.783 45.0202 19.9572 45.1943L31.798 57.0403C31.9731 57.2147 32.196 57.3331 32.4385 57.3809C32.681 57.4287 32.9321 57.4035 33.1603 57.3086C42.1076 53.6243 51.5 47.8457 59.3517 40.0775C59.4717 39.9628 59.5677 39.8255 59.634 39.6734C59.7004 39.5213 59.7357 39.3572 59.7381 39.1912C59.7404 39.0253 59.7097 38.8606 59.6477 38.7066C59.5857 38.5526 59.4937 38.4126 59.377 38.2946C59.2603 38.1766 59.1212 38.0831 58.968 38.0193C58.8147 37.9556 58.6503 37.923 58.4843 37.9235C58.3184 37.924 58.1541 37.9575 58.0013 38.0221C57.8484 38.0867 57.7099 38.1814 57.5939 38.3001C50.2167 45.5991 41.3737 51.0485 32.9211 54.6282L22.3644 44.0667C28.2106 30.2782 39.1725 15.7035 54.6496 7.85577C54.666 7.8478 54.6823 7.83944 54.6984 7.83075L56.4611 6.83954C61.759 4.59529 67.5845 3.32277 73.8635 3.13852C73.6881 9.44877 72.4792 15.3813 70.2355 20.6725C70.2336 20.6725 70.2325 20.6726 70.2305 20.6976L69.3907 22.3577C67.2007 26.676 64.4685 30.6458 61.3682 34.2568C61.2611 34.3816 61.1797 34.5263 61.1284 34.6826C61.0772 34.8388 61.0573 35.0036 61.0697 35.1675C61.0822 35.3314 61.1268 35.4911 61.2011 35.6378C61.2753 35.7844 61.3777 35.9152 61.5024 36.0223C61.6271 36.1294 61.7717 36.2106 61.9279 36.2618C62.0842 36.3131 62.2489 36.3332 62.4128 36.3207C62.5767 36.3083 62.7366 36.2635 62.8833 36.1892C63.0299 36.115 63.1605 36.0127 63.2676 35.888C66.4866 32.1385 69.3326 28.0009 71.6221 23.4854L72.4962 21.7523C72.5084 21.7268 72.5198 21.701 72.5303 21.6747C75.0789 15.6702 76.5 8.94775 76.5001 1.75775C76.5 1.42624 76.3683 1.10822 76.1339 0.87381C75.8995 0.639397 75.5816 0.507785 75.2501 0.507751L75.2502 0.498291Z" fill="#DDDDDD"/>
</svg>
