<svg width="544" height="542" viewBox="0 0 544 542" fill="none" xmlns="http://www.w3.org/2000/svg">
<path fill-rule="evenodd" clip-rule="evenodd" d="M1 540.711C1 540.711 34.7412 392.149 90.5837 386.888C130.07 385.492 160.673 420.51 156.607 452.91C151.053 508.808 1 540.711 1 540.711Z" fill="#7F5AF0"/>
<path d="M178.2 130.561C182.547 134.908 189.594 134.908 193.94 130.561C198.287 126.215 198.287 119.168 193.94 114.821C189.594 110.474 182.547 110.474 178.2 114.821C173.854 119.168 173.854 126.215 178.2 130.561Z" fill="#EEE9FF"/>
<path d="M481.75 264.785C475.812 263.194 469.709 266.718 468.118 272.655C466.527 278.593 470.051 284.696 475.988 286.287C481.926 287.878 488.029 284.354 489.62 278.416C491.211 272.479 487.687 266.376 481.75 264.785Z" fill="#2EB1B9"/>
<path fill-rule="evenodd" clip-rule="evenodd" d="M193.269 371.144C202.813 382.273 210.376 394.561 213.318 409.272L195.608 418.621L168.087 391.472L193.269 371.144ZM153.355 376.939L123.454 347.442L131.568 328.507C147.916 332.337 161.236 340.777 172.966 350.873" fill="#EEE9FF"/>
<path fill-rule="evenodd" clip-rule="evenodd" d="M212.197 356.158C224.184 370.938 233.035 387.24 236.063 402.38C354.115 363.028 543 237.105 543 1C306.895 1 180.972 189.884 141.621 307.937C156.694 310.951 172.921 319.74 187.65 331.648" fill="#EFFBFF"/>
<path d="M355.846 159.636C361.3 179.99 382.221 192.069 402.575 186.615C422.928 181.161 435.007 160.24 429.554 139.886C424.1 119.532 403.179 107.454 382.825 112.907C362.471 118.361 350.392 139.282 355.846 159.636Z" fill="#7F5AF0"/>
<path fill-rule="evenodd" clip-rule="evenodd" d="M195.19 198.567C174.957 231.27 151.996 273.342 141.887 307.932C133.808 304.726 134.096 299.984 118.325 299.918C102.585 299.806 78.1793 322.628 58.1064 333.982C71.202 283.89 103.261 189.64 126.888 186.834C142.659 182.011 181.961 190.123 195.19 198.567Z" fill="#EEE9FF"/>
<path fill-rule="evenodd" clip-rule="evenodd" d="M272.961 270.061C272.961 270.061 172.919 319.745 187.647 331.653L212.19 356.153C224.177 370.932 233.031 387.23 236.059 402.369C323.405 373.253 449.46 296.696 509.151 163.224C272.96 270.061 272.961 270.061 272.961 270.061Z" fill="white"/>
<path fill-rule="evenodd" clip-rule="evenodd" d="M345.456 349.042C313.344 368.417 270.608 392.109 236 402.16C239.193 410.244 243.87 410.031 243.975 425.736C244.042 441.475 221.199 465.843 209.81 485.898C259.925 472.887 354.227 440.987 357.074 417.363C361.922 401.6 353.878 362.284 345.456 349.042ZM251.583 316.279C261.012 303.973 270.468 273.776 270.468 273.776C270.468 273.776 240.287 283.251 227.973 292.668C185.017 325.518 125.534 418.466 125.534 418.466C125.534 418.466 218.683 359.212 251.583 316.279Z" fill="#EEE9FF"/>
<path d="M355.846 159.636C361.3 179.99 382.221 192.069 402.575 186.615C422.928 181.161 435.007 160.24 429.554 139.886C424.1 119.532 403.179 107.454 382.825 112.907C362.471 118.361 350.392 139.282 355.846 159.636Z" stroke="#7F5AF0" stroke-linecap="round" stroke-linejoin="round"/>
<path fill-rule="evenodd" clip-rule="evenodd" d="M188.502 13.7138C180.976 13.6025 180.976 24.9507 188.502 24.8439H199.632C207.158 24.9552 207.158 13.6058 199.632 13.7138H188.502ZM277.385 58.2342C269.859 58.1229 269.859 69.4712 277.385 69.3643H277.384C284.909 69.4756 284.909 58.1263 277.384 58.2342H277.385Z" fill="#2EB1B9"/>
<path d="M1 540.711C1 540.711 34.7412 392.149 90.5837 386.888C130.07 385.492 160.673 420.51 156.607 452.91C151.053 508.808 1 540.711 1 540.711V540.711Z" stroke="#7F5AF0"/>
<path fill-rule="evenodd" clip-rule="evenodd" d="M69.9834 472.333C69.9834 472.333 73.4896 396.888 108.477 393.591C133.217 392.723 152.392 414.657 149.844 434.958C146.364 469.98 69.9834 472.333 69.9834 472.333Z" fill="white"/>
<path d="M69.9834 472.333C69.9834 472.333 73.4896 396.888 108.477 393.591C133.217 392.723 152.392 414.657 149.844 434.958C146.364 469.98 69.9834 472.333 69.9834 472.333V472.333Z" stroke="#7F5AF0"/>
<path d="M212.197 356.158C224.184 370.938 233.035 387.24 236.063 402.38C354.115 363.028 543 237.105 543 1M543 1C306.895 1 180.972 189.884 141.621 307.937C156.694 310.951 172.921 319.74 187.65 331.648L543 1Z" stroke="#7F5AF0" stroke-linecap="round" stroke-linejoin="round"/>
<path d="M153.356 376.939L123.455 347.442L131.569 328.507C147.917 332.336 161.237 340.777 172.967 350.873M195.19 198.567C174.957 231.27 151.996 273.342 141.887 307.932C133.808 304.726 134.096 299.984 118.325 299.918C102.585 299.806 78.1793 322.628 58.1064 333.982C71.202 283.89 103.261 189.64 126.888 186.834C142.659 182.011 181.961 190.123 195.19 198.567ZM345.455 349.041C313.344 368.417 270.608 392.109 236 402.159C239.193 410.244 243.87 410.03 243.975 425.736C244.041 441.475 221.198 465.843 209.81 485.897C259.925 472.886 354.226 440.986 357.073 417.363C361.922 401.6 353.877 362.284 345.455 349.041V349.041ZM193.27 371.144C202.814 382.273 210.377 394.561 213.319 409.272L195.609 418.621L168.088 391.472L193.27 371.144Z" stroke="#7F5AF0" stroke-linecap="round" stroke-linejoin="round"/>
<path d="M408.386 23.7725C400.677 26.5216 393.08 29.4121 385.713 32.582L511.421 158.289C514.59 150.921 517.48 143.326 520.229 135.616L408.386 23.7725Z" fill="#EEE9FF"/>
<path d="M408.387 23.7725C400.677 26.5216 393.081 29.4121 385.713 32.582L511.421 158.289C514.591 150.921 517.481 143.326 520.229 135.616L408.387 23.7725V23.7725ZM251.583 316.279C261.012 303.973 270.468 273.776 270.468 273.776C270.468 273.776 240.287 283.251 227.973 292.668C185.017 325.518 125.534 418.466 125.534 418.466C125.534 418.466 218.683 359.212 251.583 316.279Z" stroke="#7F5AF0" stroke-linecap="round" stroke-linejoin="round"/>
<path fill-rule="evenodd" clip-rule="evenodd" d="M465.769 323.894C465.88 316.368 454.532 316.368 454.639 323.894L454.639 335.024C454.527 342.55 465.877 342.55 465.769 335.024L465.769 323.894ZM421.248 412.778C421.36 405.252 410.011 405.252 410.118 412.778L410.118 412.776C410.007 420.302 421.356 420.302 421.248 412.776L421.248 412.778Z" fill="white"/>
<path d="M178.2 130.561C182.547 134.908 189.594 134.908 193.94 130.561C198.287 126.215 198.287 119.168 193.94 114.821C189.594 110.474 182.547 110.474 178.2 114.821C173.854 119.168 173.854 126.215 178.2 130.561Z" stroke="white" stroke-linecap="round" stroke-linejoin="round"/>
</svg>
