<svg width="222" height="222" viewBox="0 0 222 222" fill="none" xmlns="http://www.w3.org/2000/svg">
<path fill-rule="evenodd" clip-rule="evenodd" d="M111 222C172.304 222 222 172.304 222 111C222 49.6964 172.304 0 111 0C49.6964 0 0 49.6964 0 111C0 172.304 49.6964 222 111 222ZM111 220C171.199 220 220 171.199 220 111C220 50.801 171.199 2 111 2C50.801 2 2 50.801 2 111C2 171.199 50.801 220 111 220Z" fill="#7F5AF0" fill-opacity="0.2"/>
<path fill-rule="evenodd" clip-rule="evenodd" d="M158.272 210.437C158.532 210.891 159.098 211.067 159.568 210.838C196.531 192.823 222 154.886 222 111C222 50.0317 172.846 0.543922 112.005 0.00443428C111.453 -0.00046273 111 0.447696 111 0.999981C111 1.55227 111.453 1.99953 112.005 2.00452C171.741 2.54393 220 51.1362 220 111C220 154.089 194.997 191.339 158.708 209.032C158.185 209.287 157.982 209.932 158.272 210.437Z" fill="#7F5AF0"/>
</svg>
