<svg width="222" height="222" viewBox="0 0 222 222" fill="none" xmlns="http://www.w3.org/2000/svg">
<path fill-rule="evenodd" clip-rule="evenodd" d="M111 222C172.304 222 222 172.304 222 111C222 49.6964 172.304 0 111 0C49.6964 0 0 49.6964 0 111C0 172.304 49.6964 222 111 222ZM111 220C171.199 220 220 171.199 220 111C220 50.801 171.199 2 111 2C50.801 2 2 50.801 2 111C2 171.199 50.801 220 111 220Z" fill="#7F5AF0" fill-opacity="0.2"/>
<path fill-rule="evenodd" clip-rule="evenodd" d="M209.052 60.7676C209.521 60.6086 210.036 60.8171 210.259 61.2598C217.771 76.2218 222 93.1171 222 111C222 172.304 172.304 222 111 222C89.5536 222 69.5277 215.918 52.5533 205.384C52.1083 205.108 51.9571 204.534 52.2039 204.072V204.072C52.4777 203.559 53.1294 203.388 53.6233 203.694C70.2883 214.031 89.9471 220 111 220C171.199 220 220 171.199 220 111C220 93.4464 215.851 76.8618 208.479 62.1738C208.205 61.628 208.474 60.9636 209.052 60.7676V60.7676Z" fill="#7F5AF0"/>
</svg>
