<svg width="222" height="222" viewBox="0 0 222 222" fill="none" xmlns="http://www.w3.org/2000/svg">
<path fill-rule="evenodd" clip-rule="evenodd" d="M111 222C172.304 222 222 172.304 222 111C222 49.6964 172.304 0 111 0C49.6964 0 0 49.6964 0 111C0 172.304 49.6964 222 111 222ZM111 220C171.199 220 220 171.199 220 111C220 50.801 171.199 2 111 2C50.801 2 2 50.801 2 111C2 171.199 50.801 220 111 220Z" fill="#7F5AF0" fill-opacity="0.2"/>
<path fill-rule="evenodd" clip-rule="evenodd" d="M219.849 128C220.342 128 220.762 127.64 220.833 127.153C221.602 121.88 222 116.486 222 111C222 49.6964 172.304 0 111 0C74.1558 0 41.5043 17.9511 21.3144 45.5844C21.0146 45.9947 21.0754 46.5648 21.4521 46.9059C21.8947 47.3068 22.5878 47.2318 22.9401 46.7497C42.767 19.6219 74.8256 2 111 2C171.199 2 220 50.801 220 111C220 116.382 219.61 121.673 218.857 126.846C218.768 127.453 219.236 128 219.849 128Z" fill="#7F5AF0"/>
</svg>
