<svg width="20" height="20" viewBox="0 0 30 17" fill="none" xmlns="http://www.w3.org/2000/svg">
<path d="M22.6626 17.8392V21.0892C22.6639 21.3909 22.6021 21.6896 22.4812 21.966C22.3603 22.2425 22.1831 22.4906 21.9607 22.6946C21.7384 22.8985 21.4759 23.0538 21.1901 23.1505C20.9043 23.2471 20.6015 23.283 20.301 23.2559C16.9674 22.8937 13.7652 21.7545 10.9518 19.9301C8.33429 18.2668 6.1151 16.0476 4.45181 13.4301C2.62096 10.6039 1.48158 7.38613 1.12598 4.03755C1.09891 3.73798 1.13451 3.43604 1.23052 3.15098C1.32653 2.86592 1.48085 2.60397 1.68364 2.38181C1.88644 2.15965 2.13327 1.98215 2.40842 1.86062C2.68357 1.73908 2.98102 1.67617 3.28181 1.67589H6.53181C7.05756 1.67071 7.56726 1.85689 7.96589 2.19971C8.36452 2.54254 8.6249 3.01862 8.69848 3.53922C8.83566 4.57929 9.09005 5.60051 9.45681 6.58339C9.60257 6.97114 9.63412 7.39254 9.54771 7.79767C9.46131 8.2028 9.26058 8.57467 8.96931 8.86922L7.59348 10.2451C9.13567 12.9572 11.3813 15.2029 14.0935 16.7451L15.4693 15.3692C15.7639 15.078 16.1357 14.8772 16.5409 14.7908C16.946 14.7044 17.3674 14.736 17.7551 14.8817C18.738 15.2485 19.7592 15.5029 20.7993 15.6401C21.3256 15.7143 21.8062 15.9794 22.1497 16.3848C22.4933 16.7903 22.6758 17.3079 22.6626 17.8392Z" stroke="#7F5AF0" stroke-width="2" stroke-linecap="round" stroke-linejoin="round"/>
</svg>
